<svg width="128" height="100" viewBox="0 0 128 100" fill="none" xmlns="http://www.w3.org/2000/svg">
<path d="M4.55029 0.5H123.359C125.292 0.500219 126.859 2.06714 126.859 4V96C126.859 97.9329 125.292 99.4998 123.359 99.5H4.55029C2.6173 99.5 1.05029 97.933 1.05029 96V4C1.05029 2.067 2.6173 0.5 4.55029 0.5Z" fill="#222328" stroke="white"/>
<line y1="-0.5" x2="38.0226" y2="-0.5" transform="matrix(-0.321806 0.946806 -0.964281 -0.264881 33.9209 45)" stroke="white"/>
<line y1="-0.5" x2="38.0226" y2="-0.5" transform="matrix(0.321806 0.946806 0.964281 -0.264881 95.0996 45)" stroke="white"/>
<line x1="33.9209" y1="44.5" x2="95.1003" y2="44.5" stroke="white"/>
<line x1="21.6846" y1="80.5" x2="107.336" y2="80.5" stroke="white"/>
<path d="M64.5103 19.5C72.5978 19.5 79.0269 25.1617 79.0269 32C79.0269 38.8383 72.5978 44.5 64.5103 44.5C56.4228 44.4999 49.9937 38.8383 49.9937 32C49.9937 25.1617 56.4228 19.5001 64.5103 19.5Z" stroke="white"/>
</svg>
